# xmcd
#
# Track frame offsets:
#	150
#	11850
#	24660
#	36270
#	48289
#	58762
#	72180
#	82055
#	96787
#	108217
#	119187
#	130707
#	141390
#	155145
#	166297
#	177837
#	190725
#	199980
#	212700
#	231237
#	243285
#	252660
#	269045
#	281637
#	297230
#
# Disc length: 4118 seconds
#
# Revision: 5
# Processed by: cddbd v1.5.2PL0 Copyright (c) Steve Scherf et al.
# Submitted via: EZCDAudioConverter 6.0.2.1
#
DISCID=89101419
DTITLE=Various Artist - 50 Number One Country Hits
DYEAR=1996
DGENRE=Country
TTITLE0=Jack Greene - There Goes My Everything
TTITLE1=Patsy Cline - I Fall To Pieces
TTITLE2=Ray Price - Crazy Arms
TTITLE3=Tammy Wynette - Stand By Your Man
TTITLE4=Willie Nelson - Blue Eyes Crying In The Rain
TTITLE5=Bobby Helms - My Special Angel
TTITLE6=Margaret Whiting and Jimmy Wakely - Slipping Around
TTITLE7=George Jones - He Stopped Loving Her Today
TTITLE8=Red Sorvine and Webb Pierce - Why Baby Why
TTITLE9=Conway Twitty - Hello Darlin'
TTITLE10=Kitty Wells - It Wasn't God Who Made Honky Tonk Angels
TTITLE11=Hank Locklin - Please Help Me, I'm Falling
TTITLE12=Ernest Tubb and Red Foley - Goodnight Irene
TTITLE13=Marty Robbins - Singing The Blues
TTITLE14=Eddy Arnold - I'll Hold You In My Heart (Till I Can Hold You In My Ar
TTITLE14=ms)
TTITLE15=Jim Reeves - Four Walls
TTITLE16=Charley Pride - Kiss An Angel Good Morning
TTITLE17=Hank Snow - I'm Moving On
TTITLE18=Don Williams - I Believe In You
TTITLE19=Oak Ridge Boys - Elvira
TTITLE20=Webb Pierce - In The Jailhouse Now
TTITLE21=Cal Smith - Country Bumpkin
TTITLE22=Red Foley - Chattanoogie Shoe Shine Boy
TTITLE23=Bill Anderson - Mama Sang A Song
TTITLE24=Freddy Fender - Before The Next Teardrop Falls
EXTD=
EXTT0=
EXTT1=
EXTT2=
EXTT3=
EXTT4=
EXTT5=
EXTT6=
EXTT7=
EXTT8=
EXTT9=
EXTT10=
EXTT11=
EXTT12=
EXTT13=
EXTT14=
EXTT15=
EXTT16=
EXTT17=
EXTT18=
EXTT19=
EXTT20=
EXTT21=
EXTT22=
EXTT23=
EXTT24=
PLAYORDER=
